<svg xmlns="http://www.w3.org/2000/svg" xmlns:xlink="http://www.w3.org/1999/xlink" width="144" zoomAndPan="magnify" viewBox="0 0 108 107.999999" height="144" preserveAspectRatio="xMidYMid meet" version="1.0"><defs><g/><clipPath id="6523e017de"><rect x="0" width="96" y="0" height="68"/></clipPath></defs><rect x="-10.8" width="129.6" fill="#ffffff" y="-10.8" height="129.599998" fill-opacity="1"/><rect x="-10.8" width="129.6" fill="#111317" y="-10.8" height="129.599998" fill-opacity="1"/><g transform="matrix(1, 0, 0, 1, 6, 20)"><g clip-path="url(#6523e017de)"><g fill="#ffffff" fill-opacity="1"><g transform="translate(0.342188, 53.795244)"><g><path d="M 0.96875 0 L 14.015625 -39.90625 L 28.828125 -39.90625 L 42.265625 0 L 29.953125 0 L 25.34375 -15.484375 C 24.351562 -18.835938 23.414062 -22.285156 22.53125 -25.828125 C 21.65625 -29.378906 20.816406 -32.929688 20.015625 -36.484375 L 22.578125 -36.484375 C 21.804688 -32.929688 21.019531 -29.378906 20.21875 -25.828125 C 19.414062 -22.285156 18.523438 -18.835938 17.546875 -15.484375 L 13.078125 0 Z M 10.640625 -7.421875 L 10.640625 -15.609375 L 32.59375 -15.609375 L 32.59375 -7.421875 Z M 10.640625 -7.421875 "/></g></g></g><g fill="#e04129" fill-opacity="1"><g transform="translate(43.579688, 53.795244)"><g><path d="M 2.46875 0 L 2.46875 -39.90625 L 19.46875 -39.90625 L 23.0625 -27.4375 C 23.363281 -26.363281 23.710938 -24.96875 24.109375 -23.25 C 24.503906 -21.53125 24.898438 -19.691406 25.296875 -17.734375 C 25.703125 -15.785156 26.066406 -13.910156 26.390625 -12.109375 C 26.722656 -10.316406 26.976562 -8.796875 27.15625 -7.546875 L 24.96875 -7.546875 C 25.164062 -8.796875 25.421875 -10.316406 25.734375 -12.109375 C 26.054688 -13.910156 26.414062 -15.785156 26.8125 -17.734375 C 27.207031 -19.691406 27.597656 -21.53125 27.984375 -23.25 C 28.378906 -24.96875 28.726562 -26.363281 29.03125 -27.4375 L 32.578125 -39.90625 L 49.578125 -39.90625 L 49.578125 0 L 38.65625 0 L 38.65625 -15.421875 C 38.65625 -16.335938 38.675781 -17.539062 38.71875 -19.03125 C 38.757812 -20.519531 38.804688 -22.15625 38.859375 -23.9375 C 38.921875 -25.726562 38.972656 -27.53125 39.015625 -29.34375 C 39.054688 -31.15625 39.078125 -32.832031 39.078125 -34.375 L 39.859375 -34.375 C 39.515625 -32.707031 39.132812 -30.96875 38.71875 -29.15625 C 38.300781 -27.34375 37.878906 -25.566406 37.453125 -23.828125 C 37.023438 -22.097656 36.613281 -20.503906 36.21875 -19.046875 C 35.820312 -17.597656 35.484375 -16.390625 35.203125 -15.421875 L 30.5625 0 L 21.5625 0 L 16.84375 -15.421875 C 16.5625 -16.390625 16.21875 -17.597656 15.8125 -19.046875 C 15.414062 -20.503906 14.992188 -22.097656 14.546875 -23.828125 C 14.097656 -25.566406 13.660156 -27.34375 13.234375 -29.15625 C 12.804688 -30.96875 12.410156 -32.707031 12.046875 -34.375 L 12.96875 -34.375 C 12.96875 -32.832031 12.988281 -31.15625 13.03125 -29.34375 C 13.070312 -27.53125 13.117188 -25.726562 13.171875 -23.9375 C 13.234375 -22.15625 13.285156 -20.519531 13.328125 -19.03125 C 13.367188 -17.539062 13.390625 -16.335938 13.390625 -15.421875 L 13.390625 0 Z M 2.46875 0 "/></g></g></g></g></g></svg>